<?xml version="1.0" encoding="utf-8"?><!DOCTYPE svg PUBLIC "-//W3C//DTD SVG 1.1//EN" "http://www.w3.org/Graphics/SVG/1.1/DTD/svg11.dtd"><svg version="1.1" xmlns="http://www.w3.org/2000/svg" xmlns:xlink="http://www.w3.org/1999/xlink" width="24" height="24" viewBox="0 0 24 24" data-tags="phone_in_talk"><g fill="#444" transform="scale(0.0234375 0.0234375)"><path d="M640 512q0-52-38-90t-90-38v-86q88 0 151 63t63 151h-86zM810 512q0-124-87-211t-211-87v-86q160 0 272 112t112 272h-86zM854 662q18 0 30 12t12 30v150q0 18-12 30t-30 12q-300 0-513-213t-213-513q0-18 12-30t30-12h150q18 0 30 12t12 30v2q0 82 24 150 4 8 4 14 0 20-14 30l-94 94q40 76 123 159t159 123l94-94q14-14 30-14 6 0 14 4 72 24 152 24z" /></g></svg>